# xmcd
#
# Track frame offsets: 
#        150
#        43291
#        84961
#        109216
#        145881
#        175079
#
# Disc length: 2681 seconds
#
# Revision: 0
# Processed by: cddbd v1.5.2PL0 Copyright (c) Steve Scherf et al.
# Submitted via: ExactAudioCopy v1.0b3
#
DISCID=4b0a7706
DTITLE=Ray Charles - 17 Original Albums [CD9)
DYEAR=2015
DGENRE=Blues
TTITLE0=Soul Brothers
TTITLE1=How Long Blues
TTITLE2=Cosmic Ray
TTITLE3=Blue Funk
TTITLE4=Bag's Guitar Blues
TTITLE5=Deed I Do
EXTD=
EXTT0=
EXTT1=
EXTT2=
EXTT3=
EXTT4=
EXTT5=
PLAYORDER=
